# xmcd
#
# Track frame offsets: 
#        150
#        20260
#        40530
#        60860
#        81162
#
# Disc length: 1351 seconds
#
# Revision: 1
# Processed by: cddbd v1.5.2PL0 Copyright (c) Steve Scherf et al.
# Submitted via: ExactAudioCopyFreeDBPlugin 1.0
#
DISCID=29054505
DTITLE=The Whitehead Bros. - Sex On The Beach (Single)
DYEAR=1995
DGENRE=R&B
TTITLE0=Sex On The Beach (Ken Spin Remix Part 1)
TTITLE1=Sex On The Beach (LP Version)
TTITLE2=Sex On The Beach (Dog House Remix Part 2)
TTITLE3=Sex On The Beach (Remix Instrumental)
TTITLE4=Sex On The Beach (Remix A Capella)
EXTD=
EXTT0=
EXTT1=
EXTT2=
EXTT3=
EXTT4=
PLAYORDER=
